<svg width="1200" height="630" viewBox="0 0 1200 630" xmlns="http://www.w3.org/2000/svg">
  <!-- 背景 -->
  <rect width="1200" height="630" fill="#0f0f13"/>

  <!-- アクセントライン（上）: accent (#9b72cf) -->
  <rect x="0" y="0" width="1200" height="6" fill="#9b72cf"/>

  <!-- faviconアイコン（260px にスケール、左中央に配置）
       左余白: translate x=90 → キャンバス左端から90px -->
  <g transform="translate(90, 185) scale(0.545)">
    <polygon style="fill:#EA1F0A;" points="30.4,130.4 230.4,245.6 230.4,476.8 30.4,361.6 "/>
    <polyline style="fill:#D81107;" points="31.2,132.8 230.4,245.6 230.4,470.4 "/>
    <polygon style="fill:#EF683F;" points="238.4,229.6 40,115.2 238.4,0 436.8,115.2 "/>
    <polyline style="fill:#E24F2D;" points="238.4,0 436.8,115.2 238.4,229.6 "/>
    <ellipse style="fill:#FFFFFF;" cx="238.4" cy="115.2" rx="44" ry="30.4"/>
    <path style="fill:#E5E5E5;" d="M238.4,84.8c24,0,44,13.6,44,30.4s-20,29.6-44,29.6"/>
    <polygon style="fill:#AA2011;" points="246.4,245.6 446.4,130.4 446.4,361.6 246.4,476.8 "/>
    <polyline style="fill:#99170D;" points="246.4,470.4 246.4,245.6 445.6,131.2 "/>
    <ellipse style="fill:#FFFFFF;" cx="400.8" cy="223.2" rx="20" ry="28.8"/>
    <path style="fill:#E5E5E5;" d="M381.6,223.2c0-16,8.8-28.8,20-28.8s20,12.8,20,28.8"/>
    <ellipse style="fill:#FFFFFF;" cx="352.8" cy="300.8" rx="20" ry="28.8"/>
    <path style="fill:#E5E5E5;" d="M332.8,300.8c0-16,8.8-28.8,20-28.8s20,12.8,20,28.8"/>
    <ellipse style="fill:#FFFFFF;" cx="304" cy="378.4" rx="20" ry="28.8"/>
    <path style="fill:#E5E5E5;" d="M284.8,378.4c0-16,8.8-28.8,20-28.8s20,12.8,20,28.8"/>
    <ellipse style="fill:#FFFFFF;" cx="94.4" cy="249.6" rx="20.8" ry="30.4"/>
    <path style="fill:#E5E5E5;" d="M73.6,249.6c0-16.8,8.8-30.4,20.8-30.4s20.8,13.6,20.8,30.4"/>
    <ellipse style="fill:#FFFFFF;" cx="156.8" cy="352" rx="20.8" ry="30.4"/>
    <path style="fill:#E5E5E5;" d="M136,352c0-16.8,8.8-30.4,20.8-30.4s20.8,13.6,20.8,30.4"/>
  </g>

  <!-- 区切り縦線: border (#333345) -->
  <line x1="440" y1="160" x2="440" y2="470" stroke="#333345" stroke-width="2"/>

  <!-- サイト名
       右余白 = 左余白(90px) に揃える: x = 1200 - 90 - 推定幅(635px) = 475
       実際の描画幅を確認して x を微調整すること -->
  <text
    x="475"
    y="300"
    font-family="'Arial Black', Gadget, sans-serif"
    font-size="60"
    fill="#c4a7e7"
    letter-spacing="3"
  >CRADLE 2 GRAVE</text>

  <!-- サブテキスト -->
  <text
    x="475"
    y="368"
    font-family="'Hiragino Kaku Gothic Pro', 'Noto Sans JP', sans-serif"
    font-size="26"
    fill="#888899"
    letter-spacing="1"
  >ゲーム系研究サイト</text>

  <!-- アクセントライン（下）: accent (#9b72cf) -->
  <rect x="0" y="624" width="1200" height="6" fill="#9b72cf"/>
</svg>
